<svg viewBox="0 0 1024 1024" xmlns="http://www.w3.org/2000/svg">
  <defs>
    <radialGradient id="gold-bg" cx="50%" cy="35%" r="70%">
      <stop offset="0%" stop-color="#fff7d6" />
      <stop offset="45%" stop-color="#f6c44d" />
      <stop offset="100%" stop-color="#2c1b00" />
    </radialGradient>
    <linearGradient id="gold-facet-a" x1="0%" y1="0%" x2="100%" y2="100%">
      <stop offset="0%" stop-color="#ffeaa0" />
      <stop offset="40%" stop-color="#f2bd32" />
      <stop offset="100%" stop-color="#92590b" />
    </linearGradient>
    <linearGradient id="gold-facet-b" x1="0%" y1="0%" x2="100%" y2="0%">
      <stop offset="0%" stop-color="#fff5d0" />
      <stop offset="50%" stop-color="#f9d36b" />
      <stop offset="100%" stop-color="#d48806" />
    </linearGradient>
    <linearGradient id="gold-facet-c" x1="0%" y1="100%" x2="100%" y2="0%">
      <stop offset="0%" stop-color="#ffe9a5" />
      <stop offset="60%" stop-color="#f1bf3c" />
      <stop offset="100%" stop-color="#b06108" />
    </linearGradient>
    <linearGradient id="gold-facet-d" x1="0%" y1="0%" x2="100%" y2="100%">
      <stop offset="0%" stop-color="#f9c74f" />
      <stop offset="60%" stop-color="#d18d1a" />
      <stop offset="100%" stop-color="#6b3605" />
    </linearGradient>
    <linearGradient id="gold-facet-e" x1="100%" y1="0%" x2="0%" y2="100%">
      <stop offset="0%" stop-color="#ffdea2" />
      <stop offset="55%" stop-color="#d58d1f" />
      <stop offset="100%" stop-color="#512104" />
    </linearGradient>
    <radialGradient id="gold-highlight" cx="50%" cy="30%" r="40%">
      <stop offset="0%" stop-color="#fff7d6" stop-opacity="0.8" />
      <stop offset="100%" stop-color="#fff7d6" stop-opacity="0" />
    </radialGradient>
  </defs>
  <path d="M291.5328 262.519467l-116.701867 158.1056h233.472z m233.472 567.671466l116.701867-409.6h-233.3696z m233.472-567.671466l-116.770133 158.1056h233.472z m0 0" fill="url(#gold-facet-a)" />
  <path d="M525.0048 262.519467l-116.701867 158.1056h233.3696z m0 0" fill="url(#gold-facet-b)" />
  <path d="M408.302933 420.625067l116.701867-158.1056h-233.472z m233.3696 0l116.770134-158.1056h-233.472z m0 0" fill="url(#gold-facet-c)" />
  <path d="M174.830933 420.625067l350.173867 409.6-116.701867-409.6z m0 0" fill="url(#gold-facet-d)" />
  <path d="M641.706667 420.625067l-116.701867 409.6 350.173867-409.6z m0 0" fill="url(#gold-facet-e)" />
  <circle cx="512" cy="350" r="200" fill="url(#gold-highlight)" />
</svg>
