<svg viewBox="0 0 1024 1024" xmlns="http://www.w3.org/2000/svg">
  <defs>
    <radialGradient id="platinum-bg" cx="50%" cy="35%" r="70%">
      <stop offset="0%" stop-color="#ffffff" />
      <stop offset="45%" stop-color="#d8dee6" />
      <stop offset="100%" stop-color="#1c2530" />
    </radialGradient>
    <linearGradient id="platinum-facet-a" x1="0%" y1="0%" x2="100%" y2="100%">
      <stop offset="0%" stop-color="#f5f7fa" />
      <stop offset="50%" stop-color="#cbd5df" />
      <stop offset="100%" stop-color="#7f8894" />
    </linearGradient>
    <linearGradient id="platinum-facet-b" x1="0%" y1="0%" x2="100%" y2="0%">
      <stop offset="0%" stop-color="#ffffff" />
      <stop offset="40%" stop-color="#e6ecf2" />
      <stop offset="100%" stop-color="#b5bec9" />
    </linearGradient>
    <linearGradient id="platinum-facet-c" x1="0%" y1="100%" x2="100%" y2="0%">
      <stop offset="0%" stop-color="#f1f3f6" />
      <stop offset="60%" stop-color="#d4dbe3" />
      <stop offset="100%" stop-color="#8f97a3" />
    </linearGradient>
    <linearGradient id="platinum-facet-d" x1="0%" y1="0%" x2="100%" y2="100%">
      <stop offset="0%" stop-color="#e7ebf2" />
      <stop offset="60%" stop-color="#b6bec8" />
      <stop offset="100%" stop-color="#606873" />
    </linearGradient>
    <linearGradient id="platinum-facet-e" x1="100%" y1="0%" x2="0%" y2="100%">
      <stop offset="0%" stop-color="#f5f7fb" />
      <stop offset="55%" stop-color="#c0c7d3" />
      <stop offset="100%" stop-color="#535b66" />
    </linearGradient>
    <radialGradient id="platinum-highlight" cx="50%" cy="30%" r="40%">
      <stop offset="0%" stop-color="#ffffff" stop-opacity="0.75" />
      <stop offset="100%" stop-color="#ffffff" stop-opacity="0" />
    </radialGradient>
  </defs>
  <path d="M291.5328 262.519467l-116.701867 158.1056h233.472z m233.472 567.671466l116.701867-409.6h-233.3696z m233.472-567.671466l-116.770133 158.1056h233.472z m0 0" fill="url(#platinum-facet-a)" />
  <path d="M525.0048 262.519467l-116.701867 158.1056h233.3696z m0 0" fill="url(#platinum-facet-b)" />
  <path d="M408.302933 420.625067l116.701867-158.1056h-233.472z m233.3696 0l116.770134-158.1056h-233.472z m0 0" fill="url(#platinum-facet-c)" />
  <path d="M174.830933 420.625067l350.173867 409.6-116.701867-409.6z m0 0" fill="url(#platinum-facet-d)" />
  <path d="M641.706667 420.625067l-116.701867 409.6 350.173867-409.6z m0 0" fill="url(#platinum-facet-e)" />
  <circle cx="512" cy="350" r="200" fill="url(#platinum-highlight)" />
</svg>
