<?xml version="1.0" standalone="no"?><!DOCTYPE svg PUBLIC "-//W3C//DTD SVG 1.1//EN" "http://www.w3.org/Graphics/SVG/1.1/DTD/svg11.dtd"><svg t="1757938320130" class="icon" viewBox="0 0 1024 1024" version="1.1" xmlns="http://www.w3.org/2000/svg" p-id="1158" xmlns:xlink="http://www.w3.org/1999/xlink" width="256" height="256"><path d="M512 512m-512 0a512 512 0 1 0 1024 0 512 512 0 1 0-1024 0Z" fill="#D0DDFE" p-id="1159"></path><path d="M226.912 215.104m64 0l379.936 0q64 0 64 64l0 459.568q0 64-64 64l-379.936 0q-64 0-64-64l0-459.568q0-64 64-64Z" fill="#FFFFFF" p-id="1160"></path><path d="M226.912 256.736m64 0l339.936 0q64 0 64 64l0 417.936q0 64-64 64l-339.936 0q-64 0-64-64l0-417.936q0-64 64-64Z" fill="#71A1FF" p-id="1161"></path><path d="M324.4 369.696m28.24 0l216.48 0q28.24 0 28.24 28.24l0 0q0 28.24-28.24 28.24l-216.48 0q-28.24 0-28.24-28.24l0 0q0-28.24 28.24-28.24Z" fill="#FFFFFF" p-id="1162"></path><path d="M324.4 501.472m28.24 0l80 0q28.24 0 28.24 28.24l0 0q0 28.24-28.24 28.24l-80 0q-28.24 0-28.24-28.24l0 0q0-28.24 28.24-28.24Z" fill="#FFFFFF" p-id="1163"></path><path d="M324.4 633.248m28.24 0l48 0q28.24 0 28.24 28.24l0 0q0 28.24-28.24 28.24l-48 0q-28.24 0-28.24-28.24l0 0q0-28.24 28.24-28.24Z" fill="#FFFFFF" p-id="1164"></path><path d="M672 640m-176 0a176 176 0 1 0 352 0 176 176 0 1 0-352 0Z" fill="#FFFFFF" p-id="1165"></path><path d="M689.247046 708.424526m-22.627417 22.627417l0 0q-22.627417 22.627417-45.254834 0l-57.496266-57.496267q-22.627417-22.627417 0-45.254834l0 0q22.627417-22.627417 45.254834 0l57.496266 57.496267q22.627417 22.627417 0 45.254834Z" fill="#FFB444" p-id="1166"></path><path d="M757.506773 557.936876m22.627417 22.627417l0 0q22.627417 22.627417 0 45.254834l-105.228803 105.228803q-22.627417 22.627417-45.254834 0l0 0q-22.627417-22.627417 0-45.254834l105.228803-105.228803q22.627417-22.627417 45.254834 0Z" fill="#FFB444" p-id="1167"></path></svg>