<?xml version="1.0" standalone="no"?><!DOCTYPE svg PUBLIC "-//W3C//DTD SVG 1.1//EN" "http://www.w3.org/Graphics/SVG/1.1/DTD/svg11.dtd"><svg t="1757922338953" class="icon" viewBox="0 0 1024 1024" version="1.1" xmlns="http://www.w3.org/2000/svg" p-id="2242" xmlns:xlink="http://www.w3.org/1999/xlink" width="256" height="256"><path d="M358.4 268.8a177.92 136.32 90 1 0 272.64 0 177.92 136.32 90 1 0-272.64 0Z" fill="#E2E3FF" p-id="2243"></path><path d="M799.786667 819.413333v-26.666666a236.8 236.8 0 0 0-236.8-236.8H426.666667a236.8 236.8 0 0 0-236.8 236.8v26.666666A54.613333 54.613333 0 0 0 244.266667 874.666667h500.906666a54.613333 54.613333 0 0 0 54.613334-55.253334z" fill="#E2E3FF" p-id="2244"></path><path d="M437.12 469.333333a206.08 206.08 0 1 1 206.08-206.08A206.08 206.08 0 0 1 437.12 469.333333z m0-369.28a163.413333 163.413333 0 1 0 163.413333 163.2 163.413333 163.413333 0 0 0-163.413333-162.986666zM566.613333 890.026667H138.24a75.946667 75.946667 0 0 1-75.733333-75.946667v-26.666667A258.133333 258.133333 0 0 1 320 529.493333h160.853333a21.333333 21.333333 0 0 1 0 42.666667H320A215.253333 215.253333 0 0 0 105.173333 787.413333v26.666667a33.066667 33.066667 0 0 0 33.066667 33.28h428.373333a21.333333 21.333333 0 1 1 0 42.666667z" fill="#3A44F2" p-id="2245"></path><path d="M755.84 740.266667a39.04 39.04 0 1 1 38.826667-38.826667 39.04 39.04 0 0 1-38.826667 38.826667z m0-42.666667a3.84 3.84 0 0 0-3.84 3.84c0 4.053333 7.466667 4.053333 7.466667 0a3.626667 3.626667 0 0 0-3.626667-3.84z" fill="#F55480" p-id="2246"></path><path d="M819.84 889.6h-128a77.653333 77.653333 0 0 1-67.2-38.613333l-64-110.933334a78.293333 78.293333 0 0 1 0-77.44l64-110.933333a77.653333 77.653333 0 0 1 67.2-38.613333h128a77.226667 77.226667 0 0 1 66.986667 38.613333l64 110.933333a78.293333 78.293333 0 0 1 0 77.44l-64 110.933334a77.226667 77.226667 0 0 1-66.986667 38.613333z m-128-333.866667a35.413333 35.413333 0 0 0-30.293333 17.28l-64 110.933334a34.986667 34.986667 0 0 0 0 34.773333l64 110.933333a35.2 35.2 0 0 0 30.293333 17.28h128a34.773333 34.773333 0 0 0 30.08-17.28l64-110.933333a34.986667 34.986667 0 0 0 0-34.773333l-64-110.933334a34.773333 34.773333 0 0 0-30.08-17.28z" fill="#F55480" p-id="2247"></path></svg>