<?xml version="1.0" standalone="no"?><!DOCTYPE svg PUBLIC "-//W3C//DTD SVG 1.1//EN" "http://www.w3.org/Graphics/SVG/1.1/DTD/svg11.dtd"><svg t="1757922317280" class="icon" viewBox="0 0 1024 1024" version="1.1" xmlns="http://www.w3.org/2000/svg" p-id="2068" xmlns:xlink="http://www.w3.org/1999/xlink" width="256" height="256"><path d="M359.68 265.813333a180.266667 138.026667 90 1 0 276.053333 0 180.266667 138.026667 90 1 0-276.053333 0Z" fill="#E2E3FF" p-id="2069"></path><path d="M806.613333 823.253333v-26.88a239.786667 239.786667 0 0 0-239.786666-239.786666h-138.453334A239.573333 239.573333 0 0 0 188.8 796.373333v26.88a55.253333 55.253333 0 0 0 55.04 55.253334h507.52a55.253333 55.253333 0 0 0 55.253333-55.253334z" fill="#E2E3FF" p-id="2070"></path><path d="M439.466667 469.333333a208.426667 208.426667 0 1 1 208.213333-208.213333A208.64 208.64 0 0 1 439.466667 469.333333z m0-373.973333a165.76 165.76 0 1 0 165.546666 165.76 165.76 165.76 0 0 0-165.546666-166.4zM570.453333 894.506667H136.533333a76.586667 76.586667 0 0 1-76.373333-76.586667v-27.093333a261.333333 261.333333 0 0 1 260.906667-260.906667h162.986666a21.333333 21.333333 0 0 1 0 42.666667h-162.986666A218.453333 218.453333 0 0 0 102.826667 790.826667v27.093333a33.92 33.92 0 0 0 33.706666 33.92h433.92a21.333333 21.333333 0 1 1 0 42.666667zM654.933333 863.36a21.333333 21.333333 0 0 1-21.333333-21.333333V599.253333a21.333333 21.333333 0 0 1 42.666667 0v242.773334a21.333333 21.333333 0 0 1-21.333334 21.333333z" fill="#3A44F2" p-id="2071"></path><path d="M798.72 863.36a21.333333 21.333333 0 0 1-21.333333-21.333333V507.306667a21.333333 21.333333 0 0 1 42.666666 0v334.72a21.333333 21.333333 0 0 1-21.333333 21.333333z" fill="#F55480" p-id="2072"></path><path d="M942.506667 863.36a21.333333 21.333333 0 0 1-21.333334-21.333333v-165.12a21.333333 21.333333 0 1 1 42.666667 0v165.12a21.333333 21.333333 0 0 1-21.333333 21.333333z" fill="#3A44F2" p-id="2073"></path></svg>