<?xml version="1.0" standalone="no"?><!DOCTYPE svg PUBLIC "-//W3C//DTD SVG 1.1//EN" "http://www.w3.org/Graphics/SVG/1.1/DTD/svg11.dtd"><svg t="1757925248209" class="icon" viewBox="0 0 1170 1024" version="1.1" xmlns="http://www.w3.org/2000/svg" p-id="1287" xmlns:xlink="http://www.w3.org/1999/xlink" width="292.5" height="256"><path d="M408.109057 667.635429q0 22.291057-19.294554 36.396546t-48.528728 27.04161q-29.234173 12.863036-63.145814 29.234173-33.911641 16.444222-61.976447 44.582114H192.945543q-47.944044 0-83.609735-9.939619-35.665691-9.939619-60.222397-26.310755-24.556705-16.517308-36.835058-37.054315Q0 711.121262 0 689.926486q0-24.629791 25.726072-39.831561 25.726072-15.347941 56.714296-28.210977 30.988224-12.863036 56.714296-27.04161 25.726072-14.032403 25.726073-36.32346t-14.032404-41.074013q-14.032403-18.782956-30.988223-42.828064-16.95582-24.045107-30.988224-56.275783-14.032403-32.303761-14.032403-82.73271 0-36.396546 7.600885-70.454358 7.600885-33.984726 22.802655-59.783884 15.20177-25.872243 38.589109-41.074013 23.387339-15.274855 54.960245-15.274855 42.097209 0 70.162016 14.105488-7.016202 42.24338-7.016202 87.994861 0 73.889373 12.278353 125.560774 12.278353 51.598316 30.988224 89.164228l-32.742274 43.997431q-15.20177 20.463921-15.20177 48.674898 0 15.274855 16.371137 26.383841 16.371137 11.182071 39.173792 21.194776 22.802655 9.939619 48.528727 20.463921 25.726072 10.597388 45.60531 22.291057 1.169367 5.846835 1.169367 18.782956z m580.005995-109.116551q0 12.936122 13.44772 23.460424 13.44772 10.597388 33.326957 19.952323 19.879238 9.428021 43.85126 18.271358 23.972022 8.770252 43.85126 18.709871 19.879238 9.939619 33.326957 22.291057 13.44772 12.351438 13.44772 28.722575 0 25.872243-17.540504 45.824567-17.540504 19.879238-46.774677 33.400043t-67.238598 20.537006q-38.004425 7.016202-77.762901 8.185569-32.742274-22.291057-70.162015-34.56941-37.419742-12.351438-70.746699-22.291057-33.326957-10.012704-57.29898-22.291057-23.972022-12.351438-28.649489-35.811862 4.677468-22.291057 30.40354-36.396546 25.726072-14.032403 55.544929-26.310756 29.818857-12.424524 53.790878-26.456926 23.972022-14.105489 23.972022-35.227179 0-24.629791-18.709871-45.166797-18.709871-20.463921-38.589108-47.505532 18.709871-41.074013 30.988223-97.422882 12.278353-56.275783 12.278353-132.576975 0-16.444222-1.75405-32.888445-1.75405-16.371137-4.092785-32.815359 30.40354-21.12169 54.960246-21.12169 54.960246 0 87.702519 18.198272 32.742274 18.198273 49.698095 45.166798 16.95582 27.04161 22.217971 58.102919 5.262151 31.061309 5.262152 56.860467 0 52.840768-16.955821 85.071444-16.95582 32.303761-37.419741 55.764185T1005.070873 511.59803q-16.95582 19.952323-16.955821 46.920848zM659.522946 682.910285q0 24.629791 21.633288 43.412747 21.633288 18.782956 54.375562 35.811862 32.742274 17.028906 71.331383 32.230676 38.589109 15.274855 71.331382 33.473128 32.742274 18.198273 54.375562 39.904647 21.633288 21.706374 21.633289 51.013632 0 19.952323-32.742274 38.150596t-86.533153 33.400042q-53.790879 15.347941-123.952894 24.118193-70.162016 8.770252-143.832132 8.770252-84.194419 0-149.094283-8.770252-64.899864-8.770252-108.751124-23.533509-43.85126-14.617087-66.653915-33.400043-22.802655-18.782956-22.802655-37.565912 0-29.307259 21.633288-51.013633 21.633288-21.706374 54.375562-39.319962 32.742274-17.540504 70.746699-32.303762 38.004425-14.617087 70.746699-31.061309 32.742274-16.444222 54.375562-35.811862t21.633289-46.336164q0-27.04161-11.108986-50.428949-11.108986-23.460424-28.064807-47.505531l-36.835058-52.256085q-19.879238-28.137892-36.835058-63.36507-16.95582-35.227179-28.064806-80.97866-11.108986-45.751481-11.108986-105.60845 0-130.238241 48.528728-207.051032Q458.391835 0 560.126758 0q85.363786 0 134.477196 25.799158 49.113411 25.799158 74.2548 66.288487t31.572907 89.164229q6.431518 48.747984 6.431518 95.668831 0 63.36507-11.108986 109.116551-11.108986 45.751481-27.480123 79.809293-16.371137 33.984726-35.081007 60.441653-18.709871 26.310756-35.081008 50.428949-16.371137 24.118193-27.480123 49.259582-11.108986 25.28756-11.108986 56.933552z" fill="#1678FF" p-id="1288"></path></svg>