<?xml version="1.0" standalone="no"?><!DOCTYPE svg PUBLIC "-//W3C//DTD SVG 1.1//EN" "http://www.w3.org/Graphics/SVG/1.1/DTD/svg11.dtd"><svg t="1757925240978" class="icon" viewBox="0 0 1170 1024" version="1.1" xmlns="http://www.w3.org/2000/svg" p-id="1119" xmlns:xlink="http://www.w3.org/1999/xlink" width="292.5" height="256"><path d="M80.328411 453.705143C43.610697 495.835429 7.112411 561.225143 2.431269 626.541714c-18.285714 112.274286 68.754286 219.794286 187.830857 285.257143q9.216 37.595429-31.963429 102.838857-18.285714 9.362286 9.216 9.362286c64.146286 0 137.362286-56.100571 174.006857-84.114286a426.203429 426.203429 0 0 0 256.512-56.173714c-279.552-13.970286-517.705143-205.604571-517.705143-430.08zM1170.303269 434.834286C1170.303269 196.388571 936.831269 0 639.13984 0c-297.691429 0-531.309714 191.780571-531.309714 434.834286 0 229.156571 233.545143 425.545143 522.020571 425.545143 45.787429 46.738286 178.614857 144.822857 279.405714 144.822857q45.787429 9.435429 27.428572-18.578286-82.432-102.765714-64.146286-163.620571C1051.080411 748.178286 1170.303269 603.355429 1170.303269 434.834286z m-722.432 149.942857c-15.652571 0-29.403429-1.609143-40.96-4.973714a104.96 104.96 0 0 1-29.549715-13.165715 58.660571 58.660571 0 0 1-18.139428-18.432 40.374857 40.374857 0 0 1-5.997715-20.772571c0-8.265143 4.169143-14.848 12.653715-19.894857a233.325714 233.325714 0 0 1 27.794285-14.116572c10.166857-4.242286 19.456-8.777143 27.794286-13.458285 8.411429-4.754286 12.580571-10.752 12.580572-18.139429a34.377143 34.377143 0 0 0-6.875429-20.48 726.308571 726.308571 0 0 1-15.140571-21.430857 157.184 157.184 0 0 1-15.213715-28.086857 105.033143 105.033143 0 0 1-6.875428-41.398857c0-12.141714 1.243429-23.917714 3.657143-35.108572 2.486857-11.264 6.290286-21.284571 11.190857-29.915428a60.562286 60.562286 0 0 1 19.017143-20.48 47.396571 47.396571 0 0 1 26.916571-7.606858c13.824 0 25.234286 2.340571 34.377143 6.948572a270.189714 270.189714 0 0 0-3.437714 44.032c0 24.649143 1.974857 45.494857 5.997714 62.756571 4.096 17.261714 9.069714 31.963429 15.213714 44.470857l-16.091428 22.016a40.228571 40.228571 0 0 0-7.460572 24.356572c0 5.12 2.706286 9.508571 8.045714 13.165714 5.485714 3.730286 11.849143 7.314286 19.309715 10.532572 7.460571 3.364571 15.36 6.729143 23.844571 10.24 8.484571 3.510857 15.945143 7.241143 22.454857 11.117714 0.365714 1.974857 0.585143 5.12 0.585143 9.362286 0 7.314286-3.218286 13.531429-9.435428 18.139428a131.218286 131.218286 0 0 1-23.844572 13.458286c-9.581714 4.315429-19.968 9.142857-31.012571 14.628571-10.971429 5.558857-21.211429 12.873143-30.354286 22.308572h-10.971429z m357.668571 75.922286c-10.752 5.997714-24.868571 11.629714-42.422857 16.822857-17.700571 5.12-37.888 9.069714-60.928 11.922285a569.051429 569.051429 0 0 1-70.656 4.388572c-27.501714 0-51.931429-1.462857-73.142857-4.388572a286.793143 286.793143 0 0 1-53.394286-11.702857 102.912 102.912 0 0 1-32.768-16.822857c-7.460571-6.217143-11.117714-12.434286-11.117714-18.724571 0-9.728 3.584-18.285714 10.678857-25.526857 7.094857-7.241143 15.872-13.750857 26.697143-19.602286 10.752-5.851429 22.235429-11.264 34.742857-16.091429 12.434286-4.900571 23.990857-10.020571 34.742857-15.506285 10.825143-5.558857 19.602286-11.410286 26.697143-17.92a30.208 30.208 0 0 0 10.678857-23.113143 58.88 58.88 0 0 0-5.485714-25.234286 154.697143 154.697143 0 0 0-13.897143-23.771429l-18.066286-26.112a204.653714 204.653714 0 0 1-31.963428-72.118857 226.889143 226.889143 0 0 1-5.485715-52.809143c0-43.373714 7.899429-77.824 23.844572-103.497142 15.945143-25.6 40.521143-38.4 73.728-38.4 27.867429 0 49.956571 4.315429 65.974857 12.873142 16.091429 8.630857 28.306286 19.675429 36.498286 33.133715 8.192 13.531429 13.312 28.379429 15.579428 44.544 2.048 16.237714 3.145143 32.182857 3.145143 47.762285 0 21.138286-1.828571 39.204571-5.485714 54.491429-3.657143 15.286857-8.045714 28.525714-13.458286 39.862857a206.994286 206.994286 0 0 1-17.261714 30.134857c-6.144 8.777143-11.922286 17.261714-17.334857 25.234286-5.339429 8.045714-9.728 16.310857-13.458286 24.649143a70.144 70.144 0 0 0-5.485714 28.379428c0 8.265143 3.584 15.36 10.678857 21.650286 7.094857 6.217143 15.872 12.214857 26.697143 17.846857 10.752 5.632 22.381714 10.971429 34.962285 16.091429 12.653714 5.12 24.283429 10.678857 35.108572 16.822857 10.678857 5.997714 19.529143 12.726857 26.624 19.821714a35.108571 35.108571 0 0 1 10.678857 25.6c0.073143 6.948571-5.12 13.312-15.945143 19.309715z m57.197714-83.529143a241.371429 241.371429 0 0 1-38.180571 4.169143c-10.825143-7.387429-22.162286-13.165714-34.377143-17.261715a1049.307429 1049.307429 0 0 0-34.816-11.117714 167.204571 167.204571 0 0 1-28.16-11.117714 25.234286 25.234286 0 0 1-14.116571-17.92c1.609143-7.314286 6.509714-13.458286 14.921142-18.139429 8.484571-4.754286 17.554286-9.069714 27.355429-13.165714a220.16 220.16 0 0 0 26.404571-13.092572c7.826286-4.681143 11.776-10.459429 11.776-17.554285a33.206857 33.206857 0 0 0-9.216-22.674286 295.497143 295.497143 0 0 1-18.944-23.771429c6.144-13.604571 11.117714-29.842286 15.213715-48.64 4.022857-18.724571 5.997714-40.813714 5.997714-66.194285 0-5.558857-0.292571-10.971429-0.877714-16.384-0.658286-5.485714-1.243429-10.971429-1.974857-16.384 9.947429-7.021714 19.017143-10.532571 26.916571-10.532572 17.993143 0 32.329143 2.998857 43.154286 9.142857a64.731429 64.731429 0 0 1 24.356571 22.674286c5.485714 8.923429 9.142857 18.578286 10.898286 28.964572 1.682286 10.386286 2.56 19.894857 2.56 28.379428 0 17.554286-2.852571 31.744-8.338286 42.496-5.485714 10.752-11.629714 19.968-18.358857 27.867429-6.729143 7.899429-12.873143 14.994286-18.358857 21.650285a35.693714 35.693714 0 0 0-8.338286 23.478858c0 4.242286 2.194286 8.265143 6.582857 11.702857 4.388571 3.584 9.801143 6.948571 16.457143 10.093714 6.436571 3.072 13.677714 6.070857 21.504 9.069714 7.826286 2.925714 15.067429 5.997714 21.577143 9.435429 6.509714 3.364571 11.995429 6.948571 16.384 11.117714a19.017143 19.017143 0 0 1 6.582857 14.336 33.865143 33.865143 0 0 1-8.484571 22.893714 67.730286 67.730286 0 0 1-23.04 16.749715c-9.654857 4.022857-20.699429 7.314286-33.060572 9.728z" fill="#30CE77" p-id="1120"></path></svg>