<?xml version="1.0" standalone="no"?><!DOCTYPE svg PUBLIC "-//W3C//DTD SVG 1.1//EN" "http://www.w3.org/Graphics/SVG/1.1/DTD/svg11.dtd"><svg t="1757925269697" class="icon" viewBox="0 0 1152 1024" version="1.1" xmlns="http://www.w3.org/2000/svg" p-id="1453" xmlns:xlink="http://www.w3.org/1999/xlink" width="288" height="256"><path d="M566.416324 1006.442229L377.46903 681.033001q-204.267345 81.281381-275.335358 130.220432-70.926161 48.868125-102.204598 197.245654h1134.818581q-20.781365-139.795464-104.261458-197.245654-70.997087-48.939051-275.406284-130.220432L566.345398 1006.442229z m0-260.299012l-62.911505 65.110216 31.349363 64.968364-94.331794 130.220432h251.787872L597.90754 876.221797l31.420289-64.968364-62.911505-65.110216zM573.225236 0c277.037586 0 277.604995 217.317758 277.604995 339.523534 0 122.205776-111.070369 349.311344-277.604995 349.595049-166.676479 0.212778-277.746848-227.460199-277.746848-349.665975C295.478388 217.317758 295.974871 0 573.225236 0z m321.791993 417.471385h-41.56273V224.197596l86.45899 104.403309-44.89626 88.87048zM205.969572 328.600905l86.529917-104.403309v193.273789h-41.704583l-44.825334-88.87048z m678.692438 90.218077q-36.172342 193.131937-168.520559 267.107924-64.11725 35.888638 52.414433-79.650079 69.933195-73.692282 95.324761-187.457845 23.405633-105.609054 20.781365 0z" fill="#F85959" p-id="1454"></path></svg>