<?xml version="1.0" standalone="no"?><!DOCTYPE svg PUBLIC "-//W3C//DTD SVG 1.1//EN" "http://www.w3.org/Graphics/SVG/1.1/DTD/svg11.dtd"><svg t="1757938363612" class="icon" viewBox="0 0 1024 1024" version="1.1" xmlns="http://www.w3.org/2000/svg" p-id="1675" xmlns:xlink="http://www.w3.org/1999/xlink" width="256" height="256"><path d="M512 512m-512 0a512 512 0 1 0 1024 0 512 512 0 1 0-1024 0Z" fill="#D0DDFE" p-id="1676"></path><path d="M226.912 215.104m64 0l379.936 0q64 0 64 64l0 459.568q0 64-64 64l-379.936 0q-64 0-64-64l0-459.568q0-64 64-64Z" fill="#FFFFFF" p-id="1677"></path><path d="M226.912 256.736m64 0l379.936 0q64 0 64 64l0 417.936q0 64-64 64l-379.936 0q-64 0-64-64l0-417.936q0-64 64-64Z" fill="#71A1FF" p-id="1678"></path><path d="M324.4 369.696m28.24 0l248.48 0q28.24 0 28.24 28.24l0 0q0 28.24-28.24 28.24l-248.48 0q-28.24 0-28.24-28.24l0 0q0-28.24 28.24-28.24Z" fill="#FFFFFF" p-id="1679"></path><path d="M324.4 501.472m28.24 0l80 0q28.24 0 28.24 28.24l0 0q0 28.24-28.24 28.24l-80 0q-28.24 0-28.24-28.24l0 0q0-28.24 28.24-28.24Z" fill="#FFFFFF" p-id="1680"></path><path d="M324.4 633.248m28.24 0l48 0q28.24 0 28.24 28.24l0 0q0 28.24-28.24 28.24l-48 0q-28.24 0-28.24-28.24l0 0q0-28.24 28.24-28.24Z" fill="#FFFFFF" p-id="1681"></path><path d="M672 640m-176 0a176 176 0 1 0 352 0 176 176 0 1 0-352 0Z" fill="#FFFFFF" p-id="1682"></path><path d="M340.4 189.92m32 0l208.96 0q32 0 32 32l0 24.48q0 32-32 32l-208.96 0q-32 0-32-32l0-24.48q0-32 32-32Z" fill="#FFFFFF" p-id="1683"></path><path d="M604.608 755.6a11.472 11.472 0 0 1-16-11.648l7.424-73.28-49.072-54.912a11.472 11.472 0 0 1 6.128-18.848l72-15.584 37.072-63.632a11.472 11.472 0 0 1 19.808 0l37.024 63.632 72 15.584a11.472 11.472 0 0 1 6.128 18.848l-49.072 54.912 7.424 73.28a11.472 11.472 0 0 1-16 11.648l-67.392-29.696-67.392 29.696z" fill="#FFB444" p-id="1684"></path></svg>