<?xml version="1.0" standalone="no"?><!DOCTYPE svg PUBLIC "-//W3C//DTD SVG 1.1//EN" "http://www.w3.org/Graphics/SVG/1.1/DTD/svg11.dtd"><svg t="1757938348540" class="icon" viewBox="0 0 1024 1024" version="1.1" xmlns="http://www.w3.org/2000/svg" p-id="1502" xmlns:xlink="http://www.w3.org/1999/xlink" width="256" height="256"><path d="M512 512m-512 0a512 512 0 1 0 1024 0 512 512 0 1 0-1024 0Z" fill="#D0DDFE" p-id="1503"></path><path d="M226.912 215.104m64 0l379.936 0q64 0 64 64l0 459.568q0 64-64 64l-379.936 0q-64 0-64-64l0-459.568q0-64 64-64Z" fill="#FFFFFF" p-id="1504"></path><path d="M226.912 256.736m64 0l339.936 0q64 0 64 64l0 417.936q0 64-64 64l-339.936 0q-64 0-64-64l0-417.936q0-64 64-64Z" fill="#71A1FF" p-id="1505"></path><path d="M324.4 369.696m28.24 0l216.48 0q28.24 0 28.24 28.24l0 0q0 28.24-28.24 28.24l-216.48 0q-28.24 0-28.24-28.24l0 0q0-28.24 28.24-28.24Z" fill="#FFFFFF" p-id="1506"></path><path d="M324.4 501.472m28.24 0l80 0q28.24 0 28.24 28.24l0 0q0 28.24-28.24 28.24l-80 0q-28.24 0-28.24-28.24l0 0q0-28.24 28.24-28.24Z" fill="#FFFFFF" p-id="1507"></path><path d="M324.4 633.248m28.24 0l48 0q28.24 0 28.24 28.24l0 0q0 28.24-28.24 28.24l-48 0q-28.24 0-28.24-28.24l0 0q0-28.24 28.24-28.24Z" fill="#FFFFFF" p-id="1508"></path><path d="M672 640m-176 0a176 176 0 1 0 352 0 176 176 0 1 0-352 0Z" fill="#E4EBFF" p-id="1509"></path><path d="M672 512a128 128 0 1 0 128 128 128.144 128.144 0 0 0-128-128m0-48a176 176 0 1 1-176 176 176 176 0 0 1 176-176z" fill="#FFFFFF" p-id="1510"></path><path d="M798.418294 721.604314m-22.627417 22.627417l0 0q-22.627417 22.627417-45.254834 0l-67.882251-67.882251q-22.627417-22.627417 0-45.254834l0 0q22.627417-22.627417 45.254834 0l67.882251 67.882251q22.627417 22.627417 0 45.254834Z" fill="#216CFF" p-id="1511"></path><path d="M640 499.616m32 0l0 0q32 0 32 32l0 112q0 32-32 32l0 0q-32 0-32-32l0-112q0-32 32-32Z" fill="#FFB444" p-id="1512"></path></svg>