<?xml version="1.0" standalone="no"?><!DOCTYPE svg PUBLIC "-//W3C//DTD SVG 1.1//EN" "http://www.w3.org/Graphics/SVG/1.1/DTD/svg11.dtd"><svg t="1757920654300" class="icon" viewBox="0 0 1024 1024" version="1.1" xmlns="http://www.w3.org/2000/svg" p-id="1800" width="256" height="256" xmlns:xlink="http://www.w3.org/1999/xlink"><path d="M375.68 265.173333a180.693333 138.24 90 1 0 276.48 0 180.693333 138.24 90 1 0-276.48 0Z" fill="#E2E3FF" p-id="1801"></path><path d="M823.466667 823.893333v-27.093333a240.213333 240.213333 0 0 0-240-240.213333h-138.88A240.213333 240.213333 0 0 0 204.586667 796.8v27.093333a55.253333 55.253333 0 0 0 55.253333 55.253334H768a55.253333 55.253333 0 0 0 55.466667-55.253334z" fill="#E2E3FF" p-id="1802"></path><path d="M455.68 469.333333a208.64 208.64 0 1 1 208.64-208.64A208.64 208.64 0 0 1 455.68 469.333333z m0-374.613333a165.973333 165.973333 0 1 0 165.973333 165.973333 166.186667 166.186667 0 0 0-165.973333-166.826666zM587.093333 896H152.32a76.586667 76.586667 0 0 1-76.586667-76.586667V791.466667A261.76 261.76 0 0 1 337.066667 529.92h163.413333a21.333333 21.333333 0 0 1 0 42.666667H337.066667A219.093333 219.093333 0 0 0 118.4 791.466667v27.093333A33.92 33.92 0 0 0 152.32 853.333333h434.773333a21.333333 21.333333 0 1 1 0 42.666667z" fill="#3A44F2" p-id="1803"></path><path d="M768 855.466667a194.986667 194.986667 0 0 1-102.613333-360.746667 21.333333 21.333333 0 0 1 22.4 36.266667 152.32 152.32 0 1 0 213.333333 201.813333 21.333333 21.333333 0 0 1 37.546667 21.333333 194.986667 194.986667 0 0 1-170.666667 101.333334z" fill="#F55480" p-id="1804"></path><path d="M777.173333 664.96a21.333333 21.333333 0 0 1-21.333333-21.333333s-1.493333-101.973333-1.28-152.746667a21.333333 21.333333 0 0 1 21.333333-21.333333 172.373333 172.373333 0 0 1 172.373334 172.373333 21.333333 21.333333 0 0 1-21.333334 21.333333c-55.466667 0-149.333333 1.28-149.333333 1.28z m20.053334-150.613333c0 35.626667 0 81.28 1.066666 107.733333l105.6-1.066667a129.92 129.92 0 0 0-106.666666-106.666666z" fill="#F55480" p-id="1805"></path></svg>